<svg id="visual" viewBox="0 0 1920 200" width="1920" height="200" xmlns="http://www.w3.org/2000/svg" xmlns:xlink="http://www.w3.org/1999/xlink" version="1.1"><rect x="0" y="0" width="1920" height="200" fill="#3c404e"></rect><path d="M0 105L45.7 100.8C91.3 96.7 182.7 88.3 274.2 93.7C365.7 99 457.3 118 548.8 125C640.3 132 731.7 127 823 123.3C914.3 119.7 1005.7 117.3 1097 122.7C1188.3 128 1279.7 141 1371.2 136.5C1462.7 132 1554.3 110 1645.8 105.2C1737.3 100.3 1828.7 112.7 1874.3 118.8L1920 125L1920 201L1874.3 201C1828.7 201 1737.3 201 1645.8 201C1554.3 201 1462.7 201 1371.2 201C1279.7 201 1188.3 201 1097 201C1005.7 201 914.3 201 823 201C731.7 201 640.3 201 548.8 201C457.3 201 365.7 201 274.2 201C182.7 201 91.3 201 45.7 201L0 201Z" fill="#fff" stroke-linecap="round" stroke-linejoin="miter"></path></svg>