<svg id="visual" viewBox="0 0 1920 200" width="1920" height="200" xmlns="http://www.w3.org/2000/svg" xmlns:xlink="http://www.w3.org/1999/xlink" version="1.1"><rect x="0" y="0" width="1920" height="200" fill="#2878b4"></rect><path d="M0 138L45.7 133.2C91.3 128.3 182.7 118.7 274.2 120.3C365.7 122 457.3 135 548.8 134.7C640.3 134.3 731.7 120.7 823 117.5C914.3 114.3 1005.7 121.7 1097 122.2C1188.3 122.7 1279.7 116.3 1371.2 118C1462.7 119.7 1554.3 129.3 1645.8 134.2C1737.3 139 1828.7 139 1874.3 139L1920 139L1920 201L1874.3 201C1828.7 201 1737.3 201 1645.8 201C1554.3 201 1462.7 201 1371.2 201C1279.7 201 1188.3 201 1097 201C1005.7 201 914.3 201 823 201C731.7 201 640.3 201 548.8 201C457.3 201 365.7 201 274.2 201C182.7 201 91.3 201 45.7 201L0 201Z" fill="#1e222c" stroke-linecap="round" stroke-linejoin="miter"></path></svg>