<svg id="visual" viewBox="0 0 1920 200" width="1920" height="200" xmlns="http://www.w3.org/2000/svg" xmlns:xlink="http://www.w3.org/1999/xlink" version="1.1"><rect x="0" y="0" width="1920" height="200" fill="#1E222C"></rect><path d="M0 138L12.3 142.3C24.7 146.7 49.3 155.3 74 148.7C98.7 142 123.3 120 148 113.7C172.7 107.3 197.3 116.7 221.8 117.3C246.3 118 270.7 110 295.2 105C319.7 100 344.3 98 369 98.2C393.7 98.3 418.3 100.7 443 102.8C467.7 105 492.3 107 517 115C541.7 123 566.3 137 591 145.7C615.7 154.3 640.3 157.7 664.8 155.7C689.3 153.7 713.7 146.3 738.2 146C762.7 145.7 787.3 152.3 812 145.7C836.7 139 861.3 119 886 108.2C910.7 97.3 935.3 95.7 960 97C984.7 98.3 1009.3 102.7 1034 111.7C1058.7 120.7 1083.3 134.3 1108 135.7C1132.7 137 1157.3 126 1181.8 127.2C1206.3 128.3 1230.7 141.7 1255.2 139.2C1279.7 136.7 1304.3 118.3 1329 107.5C1353.7 96.7 1378.3 93.3 1403 91.8C1427.7 90.3 1452.3 90.7 1477 99.3C1501.7 108 1526.3 125 1551 137.8C1575.7 150.7 1600.3 159.3 1624.8 158C1649.3 156.7 1673.7 145.3 1698.2 136.5C1722.7 127.7 1747.3 121.3 1772 122.2C1796.7 123 1821.3 131 1846 135.2C1870.7 139.3 1895.3 139.7 1907.7 139.8L1920 140L1920 201L1907.7 201C1895.3 201 1870.7 201 1846 201C1821.3 201 1796.7 201 1772 201C1747.3 201 1722.7 201 1698.2 201C1673.7 201 1649.3 201 1624.8 201C1600.3 201 1575.7 201 1551 201C1526.3 201 1501.7 201 1477 201C1452.3 201 1427.7 201 1403 201C1378.3 201 1353.7 201 1329 201C1304.3 201 1279.7 201 1255.2 201C1230.7 201 1206.3 201 1181.8 201C1157.3 201 1132.7 201 1108 201C1083.3 201 1058.7 201 1034 201C1009.3 201 984.7 201 960 201C935.3 201 910.7 201 886 201C861.3 201 836.7 201 812 201C787.3 201 762.7 201 738.2 201C713.7 201 689.3 201 664.8 201C640.3 201 615.7 201 591 201C566.3 201 541.7 201 517 201C492.3 201 467.7 201 443 201C418.3 201 393.7 201 369 201C344.3 201 319.7 201 295.2 201C270.7 201 246.3 201 221.8 201C197.3 201 172.7 201 148 201C123.3 201 98.7 201 74 201C49.3 201 24.7 201 12.3 201L0 201Z" fill="#3C404E" stroke-linecap="round" stroke-linejoin="miter"></path></svg>